<svg width="80" height="80" viewBox="0 0 80 80" fill="none" xmlns="http://www.w3.org/2000/svg">
<path d="M73.9453 39.4532L41.7656 7.29693C41.5339 7.06478 41.2587 6.88059 40.9557 6.75493C40.6528 6.62926 40.328 6.56458 40 6.56458C39.672 6.56458 39.3472 6.62926 39.0443 6.75493C38.7413 6.88059 38.4661 7.06478 38.2344 7.29693L6.05469 39.4532C5.11719 40.3907 4.58594 41.6641 4.58594 42.9922C4.58594 45.7501 6.82812 47.9922 9.58594 47.9922H12.9766V70.9376C12.9766 72.3204 14.0938 73.4376 15.4766 73.4376H35V55.9376H43.75V73.4376H64.5234C65.9062 73.4376 67.0234 72.3204 67.0234 70.9376V47.9922H70.4141C71.7422 47.9922 73.0156 47.4688 73.9531 46.5235C75.8984 44.5704 75.8984 41.4063 73.9453 39.4532Z" fill="white"/>
</svg>
