<svg width="80" height="80" viewBox="0 0 80 80" fill="none" xmlns="http://www.w3.org/2000/svg">
<g clip-path="url(#clip0_9_7)">
<path d="M58.7101 51.7195C63.5516 45.113 65.72 36.922 64.7816 28.7853C63.8432 20.6486 59.8672 13.1662 53.6489 7.83518C47.4307 2.50413 39.4288 -0.282456 31.2443 0.0329095C23.0597 0.348275 15.296 3.74234 9.50644 9.53606C3.71685 15.3298 0.328347 23.0959 0.0188381 31.2807C-0.290671 39.4655 2.50164 47.4653 7.83713 53.6797C13.1726 59.8942 20.6578 63.8649 28.7952 64.7975C36.9326 65.73 45.122 63.5557 51.7251 58.7095H51.7201C51.8701 58.9095 52.0301 59.0995 52.2101 59.2845L71.4601 78.5345C72.3976 79.4727 73.6695 80.0001 74.9958 80.0005C76.3222 80.001 77.5944 79.4746 78.5326 78.537C79.4708 77.5995 79.9981 76.3276 79.9986 75.0013C79.9991 73.6749 79.4726 72.4027 78.5351 71.4645L59.2851 52.2145C59.1063 52.0336 58.9141 51.8664 58.7101 51.7145V51.7195ZM60.0001 32.4995C60.0001 36.1109 59.2888 39.6869 57.9068 43.0233C56.5248 46.3598 54.4991 49.3913 51.9455 51.945C49.3919 54.4986 46.3603 56.5242 43.0239 57.9062C39.6874 59.2882 36.1114 59.9995 32.5001 59.9995C28.8887 59.9995 25.3128 59.2882 21.9763 57.9062C18.6398 56.5242 15.6083 54.4986 13.0547 51.945C10.501 49.3913 8.47541 46.3598 7.09341 43.0233C5.7114 39.6869 5.00009 36.1109 5.00009 32.4995C5.00009 25.2061 7.89741 18.2113 13.0547 13.0541C18.2119 7.89684 25.2066 4.99953 32.5001 4.99953C39.7935 4.99953 46.7883 7.89684 51.9455 13.0541C57.1028 18.2113 60.0001 25.2061 60.0001 32.4995Z" fill="white"/>
</g>
<defs>
<clipPath id="clip0_9_7">
<rect width="80" height="80" fill="white"/>
</clipPath>
</defs>
</svg>
