<svg width="80" height="80" viewBox="0 0 80 80" fill="none" xmlns="http://www.w3.org/2000/svg">
<path d="M66.6666 10H13.3333C9.65663 10 6.66663 12.99 6.66663 16.6667V63.3333C6.66663 67.01 9.65663 70 13.3333 70H66.6666C70.3433 70 73.3333 67.01 73.3333 63.3333V16.6667C73.3333 12.99 70.3433 10 66.6666 10ZM66.67 30C66.6666 30 66.6666 30 66.67 30H65.12L56.23 16.6667H66.6666L66.67 30ZM31.7866 30L22.8966 16.6667H31.55L40.44 30H31.7866ZM48.4533 30L39.5633 16.6667H48.2166L57.1066 30H48.4533ZM13.3333 16.6667H14.8833L23.7733 30H13.3333V16.6667ZM13.3333 63.3333V36.6667H66.6666L66.6733 63.3333H13.3333Z" fill="#F8F8F8"/>
<path d="M33.3334 60L51.6667 50L33.3334 40V60Z" fill="#F8F8F8"/>
</svg>
