<svg width="80" height="80" viewBox="0 0 80 80" fill="none" xmlns="http://www.w3.org/2000/svg">
<path d="M60 20H48.0333L55.7 12.3667C56.0108 12.0559 56.2573 11.687 56.4255 11.2809C56.5937 10.8748 56.6803 10.4396 56.6803 10C56.6803 9.56052 56.5937 9.12529 56.4255 8.71922C56.2573 8.31314 56.0108 7.94418 55.7 7.63338C55.3892 7.32259 55.0202 7.07605 54.6142 6.90785C54.2081 6.73965 53.7729 6.65308 53.3333 6.65308C52.4457 6.65308 51.5943 7.0057 50.9667 7.63338L40 18.6334L29.0333 7.63338C28.7225 7.32259 28.3536 7.07605 27.9475 6.90785C27.5414 6.73965 27.1062 6.65308 26.6667 6.65308C26.2271 6.65308 25.7919 6.73965 25.3858 6.90785C24.9798 7.07605 24.6108 7.32259 24.3 7.63338C23.6723 8.26106 23.3197 9.11238 23.3197 10C23.3197 10.4396 23.4063 10.8748 23.5745 11.2809C23.7427 11.687 23.9892 12.0559 24.3 12.3667L31.9667 20H20C17.3478 20 14.8043 21.0536 12.9289 22.929C11.0536 24.8043 10 27.3479 10 30V63.3334C10 65.9855 11.0536 68.5291 12.9289 70.4045C14.8043 72.2798 17.3478 73.3334 20 73.3334H60C62.6522 73.3334 65.1957 72.2798 67.0711 70.4045C68.9464 68.5291 70 65.9855 70 63.3334V30C70 27.3479 68.9464 24.8043 67.0711 22.929C65.1957 21.0536 62.6522 20 60 20ZM63.3333 63.3334C63.3333 64.2174 62.9821 65.0653 62.357 65.6904C61.7319 66.3155 60.8841 66.6667 60 66.6667H20C19.1159 66.6667 18.2681 66.3155 17.643 65.6904C17.0179 65.0653 16.6667 64.2174 16.6667 63.3334V40C16.6667 39.116 17.0179 38.2681 17.643 37.643C18.2681 37.0179 19.1159 36.6667 20 36.6667H60C60.8841 36.6667 61.7319 37.0179 62.357 37.643C62.9821 38.2681 63.3333 39.116 63.3333 40V63.3334Z" fill="white"/>
</svg>
